<svg width="297" height="236" viewBox="0 0 297 236" fill="none" xmlns="http://www.w3.org/2000/svg">
<path d="M253.992 220.013C253.408 218.915 254.098 217.91 254.207 216.857C255.177 207.305 252.431 199.284 243.445 194.017C240.702 192.406 237.904 190.738 234.898 189.696C230.246 188.075 227.245 184.641 224.054 181.464C220.861 178.294 220.732 174.289 222.081 170.248C223.068 167.295 224.638 164.594 226.529 162.085C229.08 158.712 231.867 155.503 234.325 152.066C239.488 144.849 243.927 137.24 245.633 128.542C247.625 118.378 246.015 109.014 237.651 101.605C231.417 96.0753 223.795 94.5207 215.524 94.7846C204.419 95.1395 194.433 99.0139 184.61 103.441C178.617 106.139 172.885 109.442 166.073 110.045C159.061 110.667 153.401 108.562 149.379 102.834C146.717 99.0393 144.806 94.9359 143.122 90.6844C138.829 79.848 135.905 68.5402 130.749 57.995C125.301 46.8545 115.024 40.3134 104.01 41.0065C94.3608 41.6142 86.4607 45.9569 80.0286 52.2752C72.4946 59.6716 66.6004 68.3461 61.3914 77.4248C58.3902 82.656 55.4797 88.0157 50.6389 92.0076C44.7443 96.8704 38.1745 98.2623 31.3982 94.1997C25.5947 90.7154 20.3302 86.583 14.6057 83.0329C7.8272 78.8253 0.970667 75.2282 -7.46054 75.3275C-20.5011 75.4805 -30.0023 82.1201 -38.3736 90.643C-41.8516 94.1811 -44.7752 98.2178 -47.9465 102.028C-48.8666 104.118 -49.7928 106.205 -50.6961 108.268C-50.6034 108.41 -50.5441 108.587 -50.4453 108.731C-50.3647 108.85 -50.1391 109.043 -50.137 109.037C-49.2972 108.338 -48.2758 107.745 -47.6683 106.89C-41.2803 97.8801 -32.9947 90.8377 -23.2107 85.348C-15.703 81.1378 -7.80714 79.1095 0.728427 82.2724C5.16091 83.9117 9.38449 85.9541 13.1532 88.8101C17.3167 91.961 21.4253 95.2249 25.8821 97.9678C33.5031 102.658 41.6785 104.317 50.122 99.9185C55.2348 97.2567 58.981 93.0399 62.0293 88.4344C67.0812 80.8059 71.817 72.9874 77.2909 65.6169C81.2639 60.2682 85.5904 55.2334 91.6581 51.8777C104.732 44.6505 115.984 46.9293 122.952 58.3568C126.492 64.1614 129.29 70.3038 131.133 76.8188C133.659 85.7446 136.373 94.608 141.051 102.784C147.591 114.214 159.315 119.975 173.706 115.002C181.705 112.24 189.116 108.313 197.106 105.535C205.656 102.562 214.129 100.443 223.248 101.91C230.099 103.012 235.131 106.215 237.748 112.684C239.379 116.722 239.64 120.744 239.21 124.925C238.202 134.654 233.143 142.661 227.397 150.4C224.012 154.967 220.305 159.321 217.595 164.34C212.822 173.183 214.554 181.76 222.473 188.255C225.97 191.12 229.854 193.377 234.089 195.01C238.024 196.524 241.391 198.86 244.589 201.337C249.596 205.213 250.783 210.77 250.395 216.571C249.957 223.059 249.126 229.527 248.466 236C250.312 230.674 252.159 225.343 254.006 220.011L253.992 220.013Z" fill="#FF8B13"/>
<path d="M105.221 160.79C103.407 163.183 103.003 165.711 103.431 168.064C103.889 170.587 102.646 171.619 100.808 172.815C97.0023 175.281 92.7088 176.818 88.3737 177.725C72.8469 180.968 57.4034 180.65 42.2156 175.655C39.7299 174.839 37.1847 173.836 33.8486 174.079C35.1926 176.409 37.1431 177.129 38.9271 177.991C42.6616 179.805 46.7351 180.616 50.755 181.625C68.7913 186.161 86.1675 184.171 102.955 176.801C104.781 176.001 105.881 175.672 107.32 177.345C109.788 180.214 113.046 181.109 117.911 180.1C109.217 175.655 106.345 168.79 105.221 160.785V160.79Z" fill="#FF8B13"/>
<path d="M91.3608 149.673C91.2953 147.564 89.107 145.835 86.6748 145.971C84.3377 146.107 82.75 147.666 82.7797 149.803C82.8154 152.247 84.4686 153.772 87.1029 153.783C89.4757 153.795 91.4321 151.907 91.3608 149.667V149.673Z" fill="#FF8B13"/>
<path d="M51.1894 155.717C53.3956 155.587 55.0072 153.993 55.0547 151.89C55.1023 149.639 53.1934 147.82 50.8504 147.888C48.674 147.95 47.0565 149.571 47.0267 151.72C46.997 154.062 48.8642 155.853 51.1894 155.717Z" fill="#FF8B13"/>
</svg>
